<svg data-v-1e121de1="" version="1.0" xmlns="http://www.w3.org/2000/svg" xmlns:xlink="http://www.w3.org/1999/xlink" width="100%" height="100%" viewBox="0 0 340.000000 250.000000" preserveAspectRatio="xMidYMid meet" color-interpolation-filters="sRGB" class="el-tooltip" style="margin: auto;"><rect data-v-1e121de1="" x="0" y="0" width="100%" height="100%" fill="#fff" fill-opacity="1" class="background"></rect> <rect data-v-1e121de1="" x="0" y="0" width="100%" height="100%" fill="url(#watermark)" fill-opacity="1" class="watermarklayer"></rect> <g data-v-1e121de1="" fill="#000000" class="icon-text-wrapper icon-svg-group iconsvg" transform="translate(55.98938751220703,73.36343002319336)"><g class="iconsvg-imagesvg" transform="translate(84.01061248779297,0)"><rect fill="#000000" fill-opacity="0" stroke-width="2" x="0" y="0" width="60" height="54.85714171984181" class="image-rect"></rect> <svg filter="url(#colors8958700691)" x="0" y="0" width="60" height="54.85714171984181" filtersec="colorsf1855490439" class="image-svg-svg primary"><svg fill="#000000" xmlns="http://www.w3.org/2000/svg" xmlns:xlink="http://www.w3.org/1999/xlink" version="1.1" x="0px" y="0px" viewBox="11.899999618530273 13.199999809265137 80.5 73.5999984741211" style="enable-background:new 0 0 100 100;" xml:space="preserve"><g><rect x="11.9" y="39.5" width="8" height="20.9"></rect></g><g><rect x="30" y="25.6" width="8" height="48.9"></rect></g><g><rect x="48.1" y="13.2" width="8" height="73.6"></rect></g><g><rect x="84.4" y="39.5" width="8" height="20.9"></rect></g><g><rect x="66.3" y="25.6" width="8" height="48.9"></rect></g></svg></svg> <defs><filter id="colors8958700691"><feColorMatrix type="matrix" values="0 0 0 0 0  0 0 0 0 0  0 0 0 0 0  0 0 0 1 0" class="icon-fecolormatrix"></feColorMatrix></filter> <filter id="colorsf1855490439"><feColorMatrix type="matrix" values="0 0 0 0 0.99609375  0 0 0 0 0.99609375  0 0 0 0 0.99609375  0 0 0 1 0" class="icon-fecolormatrix"></feColorMatrix></filter> <filter id="colorsb9025848125"><feColorMatrix type="matrix" values="0 0 0 0 0  0 0 0 0 0  0 0 0 0 0  0 0 0 1 0" class="icon-fecolormatrix"></feColorMatrix></filter></defs></g> <g transform="translate(0,61.85714340209961)" mask="url(#941b50c7-4f0e-476a-9d8a-a520709cdeb8)"><g fill-rule="" class="tp-name iconsvg-namesvg" transform="translate(0,0)"><g><path d="M1.66 0L13.19 0L17.30-4.11L17.30-11.47L15.68-13.13L17.30-14.75L17.30-22.14L13.19-26.26L1.66-26.26ZM6.63-21.28L10.91-21.28L12.37-19.86L12.37-17.04L10.94-15.61L6.63-15.61ZM6.63-10.64L10.94-10.64L12.37-9.18L12.37-6.40L10.91-4.97L6.63-4.97ZM20.62-26.26L20.62 0L25.59 0L25.59-26.26ZM44.46 0L44.46-26.26L39.48-26.26L39.48-13.39L33.81-26.26L28.91-26.26L28.91 0L33.88 0L33.88-12.90L39.58 0ZM63.45-17.97L63.45-22.14L59.34-26.26L51.91-26.26L47.77-22.14L47.77-4.11L51.91 0L59.34 0L63.45-4.11L63.45-13.56L55.03-13.56L55.03-8.59L58.48-8.59L58.48-6.40L57.05-4.97L54.20-4.97L52.78-6.40L52.78-19.86L54.20-21.28L57.05-21.28L58.48-19.86L58.48-17.97Z" transform="translate(-1.6575381954453734, 26.255405015854716)"></path></g> <!----> <!----> <!----> <!----> <!----> <!----> <g fill="#000000" transform="translate(64.79000091552734,0)"><path d="M15.02-3.71L13.92-3.71L17.04-12.53L20.22-3.71L19.06-3.71L19.06-1.59L27.05-1.59L27.05-3.71L25.86-3.71L30.23-16.01L31.63-16.01L31.63-18.17L25.66-18.17L25.66-16.01L26.75-16.01L23.04-5.54L19.33-16.01L20.39-16.01L20.39-18.17L13.69-18.17L13.69-16.01L14.82-16.01L11.07-5.54L7.33-16.01L8.59-16.01L8.59-18.17L2.49-18.17L2.49-16.01L3.85-16.01L8.22-3.71L7.03-3.71L7.03-1.59L15.02-1.59ZM27.05-4.54L27.95-4.54L27.95-0.73L18.17-0.73L18.17-4.54L19.00-4.54C18.26-6.42 17.72-7.98 17.04-9.95C16.37-8.13 15.82-6.36 15.15-4.54L15.91-4.54L15.91-0.73L6.13-0.73L6.13-4.54L6.96-4.54C5.65-8.26 4.54-11.43 3.22-15.18L1.59-15.18L1.59-19.00L9.48-19.00L9.48-15.18L8.59-15.18C9.41-12.71 10.20-10.65 11.07-8.19C11.94-10.54 12.69-12.81 13.56-15.18L12.80-15.18L12.80-19.00L21.28-19.00L21.28-15.18L20.52-15.18C21.42-12.73 22.18-10.72 23.04-8.22C23.89-10.67 24.67-12.65 25.53-15.18L24.76-15.18L24.76-19.00L32.52-19.00L32.52-15.18L30.83-15.18C29.60-11.50 28.35-8.19 27.05-4.54ZM16.67-5.24L16.18-5.24C16.44-6.08 16.73-6.90 17.04-7.69C17.33-6.86 17.58-6.30 17.82-5.59L17.93-5.24L17.44-5.24L17.44-0.03L28.71-0.03L28.71-5.24L28.11-5.24C29.19-8.47 30.26-11.29 31.43-14.45L33.25-14.45L33.25-19.69L24.03-19.69L24.03-14.45L24.53-14.45C23.96-12.91 23.59-11.79 23.07-10.34C22.53-11.92 22.08-12.97 21.58-14.45L22.01-14.45L22.01-19.69L12.03-19.69L12.03-14.45L12.56-14.45C12.00-12.92 11.59-11.78 11.07-10.34C10.53-11.92 10.10-12.98 9.61-14.45L10.21-14.45L10.21-19.69L0.83-19.69L0.83-14.45L2.69-14.45C3.24-12.84 3.79-11.32 4.34-9.76L5.14-7.54C5.40-6.80 5.67-6.03 5.93-5.24L5.40-5.24L5.40-0.03L16.67-0.03ZM44.85-16.01L44.85-18.17L37.06-18.17L37.06-16.01L38.26-16.01L34.21-3.71L33.42-3.71L33.42-1.59L38.42-1.59L38.42-3.71L37.43-3.71L38.39-6.63L43.36-6.63L44.36-3.71L43.33-3.71L43.33-1.59L48.33-1.59L48.33-3.71L47.57-3.71L43.53-16.01ZM42.86-8.16L38.89-8.16L40.91-14.25ZM40.01-8.98L41.74-8.98C41.42-9.93 41.25-10.67 40.91-11.64C40.55-10.72 40.34-10.01 40.01-8.98ZM38.59-4.54L39.25-4.54L39.25-0.73L32.62-0.73L32.62-4.54L33.61-4.54C34.79-8.15 35.87-11.58 37.10-15.18L36.23-15.18L36.23-19.00L45.65-19.00L45.65-15.18L44.69-15.18C45.86-11.48 46.94-8.25 48.13-4.54L49.16-4.54L49.16-0.73L42.50-0.73L42.50-4.54L43.20-4.54C43.13-4.72 43.06-4.91 43.00-5.11L42.76-5.80L38.99-5.80C38.81-5.21 38.79-5.24 38.59-4.54ZM45.62-14.45L46.34-14.45L46.34-19.69L35.54-19.69L35.54-14.45L36.17-14.45C35.10-11.26 34.18-8.42 33.12-5.24L31.92-5.24L31.92-0.03L39.95-0.03L39.95-5.11L41.80-5.11L41.80-0.03L49.86-0.03L49.86-5.24L48.63-5.24C47.50-8.55 46.68-11.16 45.62-14.45ZM56.92-3.71L56.92-16.01L57.95-16.01L57.95-18.17L52.97-18.17L52.97-16.01L54.04-16.01L54.04-3.71L52.97-3.71L52.97-1.59L64.01-1.59L64.01-4.81L61.99-4.81L61.99-3.71ZM57.72-15.18L57.72-4.54L61.20-4.54L61.20-5.67L64.81-5.67L64.81-0.73L52.18-0.73L52.18-4.54L53.24-4.54L53.24-15.18L52.18-15.18L52.18-19.00L58.74-19.00L58.74-15.18ZM58.35-14.45L59.41-14.45L59.41-19.69L51.52-19.69L51.52-14.45L52.58-14.45L52.58-5.24L51.52-5.24L51.52-0.03L65.44-0.03L65.44-6.36L60.53-6.36L60.53-5.24L58.35-5.24ZM72.50-3.71L72.50-16.01L73.53-16.01L73.53-18.17L68.56-18.17L68.56-16.01L69.62-16.01L69.62-3.71L68.56-3.71L68.56-1.59L79.59-1.59L79.59-4.81L77.57-4.81L77.57-3.71ZM73.30-15.18L73.30-4.54L76.78-4.54L76.78-5.67L80.39-5.67L80.39-0.73L67.76-0.73L67.76-4.54L68.82-4.54L68.82-15.18L67.76-15.18L67.76-19.00L74.32-19.00L74.32-15.18ZM73.93-14.45L74.99-14.45L74.99-19.69L67.10-19.69L67.10-14.45L68.16-14.45L68.16-5.24L67.10-5.24L67.10-0.03L81.02-0.03L81.02-6.36L76.11-6.36L76.11-5.24L73.93-5.24ZM88.11-8.62L93.65-8.62L96.00-11.11L96.00-15.71L93.65-18.17L84.14-18.17L84.14-16.01L85.20-16.01L85.20-3.71L84.14-3.71L84.14-1.59L89.18-1.59L89.18-3.71L88.11-3.71ZM88.11-16.01L91.96-16.01L93.05-14.85L93.05-11.97L91.96-10.77L88.11-10.77ZM88.91-11.60L91.63-11.60L92.26-12.27L92.26-14.52L91.66-15.18L88.91-15.18ZM83.34-19.00L93.98-19.00L96.80-16.04L96.80-10.77L93.98-7.79L88.91-7.79L88.91-4.54L89.97-4.54L89.97-0.73L83.34-0.73L83.34-4.54L84.40-4.54L84.40-15.18L83.34-15.18ZM89.57-7.09L94.25-7.09L97.46-10.48L97.46-16.34L94.25-19.69L82.68-19.69L82.68-14.45L83.74-14.45L83.74-5.24L82.68-5.24L82.68-0.03L90.63-0.03L90.63-5.24L89.57-5.24ZM89.57-14.45L91.36-14.45L91.60-14.22L91.60-12.53L91.40-12.33L89.57-12.33ZM109.40-16.01L109.40-18.17L101.61-18.17L101.61-16.01L102.80-16.01L98.76-3.71L97.96-3.71L97.96-1.59L102.97-1.59L102.97-3.71L101.97-3.71L102.93-6.63L107.91-6.63L108.90-3.71L107.87-3.71L107.87-1.59L112.88-1.59L112.88-3.71L112.12-3.71L108.07-16.01ZM107.41-8.16L103.43-8.16L105.45-14.25ZM104.56-8.98L106.28-8.98C105.96-9.93 105.79-10.67 105.45-11.64C105.10-10.72 104.89-10.01 104.56-8.98ZM103.13-4.54L103.80-4.54L103.80-0.73L97.16-0.73L97.16-4.54L98.16-4.54C99.33-8.15 100.41-11.58 101.64-15.18L100.78-15.18L100.78-19.00L110.19-19.00L110.19-15.18L109.23-15.18C110.41-11.48 111.49-8.25 112.68-4.54L113.71-4.54L113.71-0.73L107.04-0.73L107.04-4.54L107.74-4.54C107.67-4.72 107.61-4.91 107.54-5.11L107.31-5.80L103.53-5.80C103.35-5.21 103.34-5.24 103.13-4.54ZM110.16-14.45L110.89-14.45L110.89-19.69L100.08-19.69L100.08-14.45L100.71-14.45C99.65-11.26 98.72-8.42 97.66-5.24L96.47-5.24L96.47-0.03L104.49-0.03L104.49-5.11L106.35-5.11L106.35-0.03L114.40-0.03L114.40-5.24L113.18-5.24C112.04-8.55 111.23-11.16 110.16-14.45ZM121.50-8.62L127.03-8.62L129.39-11.11L129.39-15.71L127.03-18.17L117.52-18.17L117.52-16.01L118.58-16.01L118.58-3.71L117.52-3.71L117.52-1.59L122.56-1.59L122.56-3.71L121.50-3.71ZM121.50-16.01L125.34-16.01L126.44-14.85L126.44-11.97L125.34-10.77L121.50-10.77ZM122.29-11.60L125.01-11.60L125.64-12.27L125.64-14.52L125.04-15.18L122.29-15.18ZM116.72-19.00L127.37-19.00L130.18-16.04L130.18-10.77L127.37-7.79L122.29-7.79L122.29-4.54L123.35-4.54L123.35-0.73L116.72-0.73L116.72-4.54L117.78-4.54L117.78-15.18L116.72-15.18ZM122.96-7.09L127.63-7.09L130.85-10.48L130.85-16.34L127.63-19.69L116.06-19.69L116.06-14.45L117.12-14.45L117.12-5.24L116.06-5.24L116.06-0.03L124.02-0.03L124.02-5.24L122.96-5.24ZM122.96-14.45L124.75-14.45L124.98-14.22L124.98-12.53L124.78-12.33L122.96-12.33ZM144.87-1.59L144.87-4.44L142.88-4.44L142.88-3.71L137.87-3.71L137.87-8.78L140.49-8.78L140.49-8.02L142.52-8.02L142.52-11.67L140.49-11.67L140.49-10.94L137.87-10.94L137.87-16.01L142.88-16.01L142.88-15.28L144.87-15.28L144.87-18.17L133.96-18.17L133.96-16.01L134.99-16.01L134.99-3.71L133.96-3.71L133.96-1.59ZM145.63-5.30L145.63-0.73L133.17-0.73L133.17-4.54L134.23-4.54L134.23-15.18L133.17-15.18L133.17-19.00L145.63-19.00L145.63-14.45L142.08-14.45L142.08-15.18L138.67-15.18L138.67-11.77L139.73-11.77L139.73-12.50L143.28-12.50L143.28-7.19L139.73-7.19L139.73-7.96L138.67-7.96L138.67-4.54L142.08-4.54L142.08-5.30ZM146.29-0.03L146.29-6.00L141.42-6.00L141.42-5.24L139.33-5.24L139.33-6.50L143.94-6.50L143.94-13.23L139.33-13.23L139.33-14.45L141.42-14.45L141.42-13.76L146.29-13.76L146.29-19.69L132.50-19.69L132.50-14.45L133.56-14.45L133.56-5.24L132.50-5.24L132.50-0.03ZM149.44-1.59L154.58-1.59L154.58-3.71L153.49-3.71L153.49-9.12L157.43-9.12L158.53-7.96L158.53-1.59L162.57-1.59L162.57-3.71L161.51-3.71L161.51-8.52L159.89-10.18L161.51-11.87L161.51-15.71L159.12-18.17L149.44-18.17L149.44-16.01L150.54-16.01L150.54-3.71L149.44-3.71ZM153.49-16.01L157.43-16.01L158.53-14.85L158.53-12.43L157.43-11.24L153.49-11.24ZM154.32-12.10L157.07-12.10L157.73-12.73L157.73-14.52L157.10-15.18L154.32-15.18ZM157.07-8.29L154.32-8.29L154.32-4.54L155.38-4.54L155.38-0.73L148.65-0.73L148.65-4.54L149.71-4.54L149.71-15.18L148.65-15.18L148.65-19.00L159.46-19.00L162.31-16.04L162.31-11.54L161.01-10.18L162.31-8.85L162.31-4.54L163.40-4.54L163.40-0.73L157.73-0.73L157.73-7.66C157.50-7.89 157.29-8.03 157.07-8.29ZM157.04-7.33L157.04-0.03L164.06-0.03L164.06-5.24L163.00-5.24L163.00-9.15L161.97-10.18L163.00-11.24L163.00-16.34L159.75-19.69L147.95-19.69L147.95-14.45L149.05-14.45L149.05-5.24L147.95-5.24L147.95-0.03L156.07-0.03L156.07-5.24L154.98-5.24L154.98-7.59L156.80-7.59C156.87-7.53 156.98-7.39 157.04-7.33ZM154.98-14.45L156.80-14.45L157.04-14.22L157.04-13.03L156.84-12.80L154.98-12.80Z" transform="translate(-0.8287690977226866, 26.255405015854716)"></path></g></g> <g fill-rule="" hollow-target="t-name" class="tp-slogan iconsvg-slogansvg" fill="#000000" transform="translate(0,33.260000228881836)"><rect x="0" height="1" y="3.580000400543213" width="93.63938522338867"></rect> <rect height="1" y="3.580000400543213" width="93.63938522338867" x="134.3793830871582"></rect> <g transform="translate(96.63938522338867,0)"><path d="M2.08-4.14L2.08-7.07L3.40-7.07C4.01-7.07 4.48-6.96 4.81-6.76C5.14-6.55 5.30-6.18 5.30-5.66C5.30-5.15 5.14-4.77 4.81-4.52C4.48-4.27 4.01-4.14 3.40-4.14ZM5.40 0L6.53 0L4.54-3.43C5.07-3.57 5.50-3.82 5.82-4.19C6.14-4.56 6.30-5.05 6.30-5.66C6.30-6.07 6.23-6.42 6.10-6.70C5.96-6.98 5.77-7.20 5.53-7.38C5.28-7.56 4.99-7.68 4.65-7.76C4.31-7.83 3.94-7.87 3.54-7.87L1.08-7.87L1.08 0L2.08 0L2.08-3.32L3.50-3.32ZM10.96 0.14C11.45 0.14 11.91 0.05 12.32-0.14C12.73-0.34 13.09-0.61 13.39-0.97C13.69-1.32 13.92-1.75 14.08-2.26C14.25-2.77 14.33-3.34 14.33-3.97C14.33-4.60 14.25-5.16 14.08-5.66C13.92-6.16 13.69-6.58 13.39-6.93C13.09-7.28 12.73-7.55 12.32-7.73C11.91-7.92 11.45-8.02 10.96-8.02C10.46-8.02 10.01-7.92 9.59-7.74C9.18-7.56 8.83-7.29 8.53-6.94C8.24-6.59 8.01-6.17 7.84-5.67C7.68-5.17 7.60-4.60 7.60-3.97C7.60-3.34 7.68-2.77 7.84-2.26C8.01-1.75 8.24-1.32 8.53-0.97C8.83-0.61 9.18-0.34 9.59-0.14C10.01 0.05 10.46 0.14 10.96 0.14ZM10.96-0.73C10.60-0.73 10.29-0.81 10.00-0.96C9.72-1.11 9.47-1.33 9.27-1.61C9.07-1.90 8.91-2.24 8.80-2.63C8.68-3.03 8.63-3.48 8.63-3.97C8.63-4.46 8.68-4.90 8.80-5.29C8.91-5.68 9.07-6.02 9.27-6.29C9.47-6.56 9.72-6.77 10.00-6.92C10.29-7.07 10.60-7.14 10.96-7.14C11.31-7.14 11.63-7.07 11.91-6.92C12.19-6.77 12.44-6.56 12.64-6.29C12.85-6.02 13.00-5.68 13.12-5.29C13.23-4.90 13.28-4.46 13.28-3.97C13.28-3.48 13.23-3.03 13.12-2.63C13.00-2.24 12.85-1.90 12.64-1.61C12.44-1.33 12.19-1.11 11.91-0.96C11.63-0.81 11.31-0.73 10.96-0.73ZM16.02-7.87L16.02 0L18.53 0C18.97 0 19.37-0.05 19.74-0.14C20.11-0.24 20.42-0.38 20.69-0.58C20.95-0.77 21.16-1.01 21.30-1.30C21.44-1.58 21.52-1.92 21.52-2.30C21.52-2.85 21.36-3.28 21.04-3.59C20.72-3.90 20.27-4.10 19.69-4.19L19.69-4.24C20.16-4.36 20.50-4.57 20.72-4.89C20.95-5.21 21.06-5.56 21.06-5.95C21.06-6.30 20.99-6.59 20.86-6.83C20.73-7.08 20.55-7.28 20.31-7.43C20.07-7.58 19.79-7.69 19.46-7.76C19.13-7.84 18.76-7.87 18.36-7.87ZM18.18-4.51L17.02-4.51L17.02-7.08L18.23-7.08C18.84-7.08 19.31-6.99 19.61-6.80C19.92-6.61 20.08-6.30 20.08-5.87C20.08-5.43 19.93-5.09 19.64-4.86C19.35-4.63 18.86-4.51 18.18-4.51ZM18.38-0.79L17.02-0.79L17.02-3.77L18.38-3.77C19.08-3.77 19.61-3.65 19.98-3.43C20.35-3.20 20.53-2.84 20.53-2.35C20.53-1.82 20.34-1.42 19.97-1.17C19.59-0.92 19.06-0.79 18.38-0.79ZM25.98 0.14C26.48 0.14 26.93 0.05 27.34-0.14C27.75-0.34 28.11-0.61 28.41-0.97C28.71-1.32 28.94-1.75 29.11-2.26C29.27-2.77 29.35-3.34 29.35-3.97C29.35-4.60 29.27-5.16 29.11-5.66C28.94-6.16 28.71-6.58 28.41-6.93C28.11-7.28 27.75-7.55 27.34-7.73C26.93-7.92 26.48-8.02 25.98-8.02C25.48-8.02 25.03-7.92 24.62-7.74C24.21-7.56 23.85-7.29 23.56-6.94C23.26-6.59 23.03-6.17 22.87-5.67C22.70-5.17 22.62-4.60 22.62-3.97C22.62-3.34 22.70-2.77 22.87-2.26C23.03-1.75 23.26-1.32 23.56-0.97C23.85-0.61 24.21-0.34 24.62-0.14C25.03 0.05 25.48 0.14 25.98 0.14ZM25.98-0.73C25.63-0.73 25.31-0.81 25.03-0.96C24.74-1.11 24.50-1.33 24.29-1.61C24.09-1.90 23.93-2.24 23.82-2.63C23.71-3.03 23.65-3.48 23.65-3.97C23.65-4.46 23.71-4.90 23.82-5.29C23.93-5.68 24.09-6.02 24.29-6.29C24.50-6.56 24.74-6.77 25.03-6.92C25.31-7.07 25.63-7.14 25.98-7.14C26.33-7.14 26.65-7.07 26.93-6.92C27.22-6.77 27.46-6.56 27.67-6.29C27.87-6.02 28.03-5.68 28.14-5.29C28.25-4.90 28.31-4.46 28.31-3.97C28.31-3.48 28.25-3.03 28.14-2.63C28.03-2.24 27.87-1.90 27.67-1.61C27.46-1.33 27.22-1.11 26.93-0.96C26.65-0.81 26.33-0.73 25.98-0.73ZM32.44-7.03L32.44 0L33.44 0L33.44-7.03L35.82-7.03L35.82-7.87L30.06-7.87L30.06-7.03Z" transform="translate(-1.08, 8.016)"></path></g></g></g></g><mask id="941b50c7-4f0e-476a-9d8a-a520709cdeb8"><g fill-rule="" class="tp-name iconsvg-namesvg" transform="translate(0,0)" fill="white"><g><path d="M1.66 0L13.19 0L17.30-4.11L17.30-11.47L15.68-13.13L17.30-14.75L17.30-22.14L13.19-26.26L1.66-26.26ZM6.63-21.28L10.91-21.28L12.37-19.86L12.37-17.04L10.94-15.61L6.63-15.61ZM6.63-10.64L10.94-10.64L12.37-9.18L12.37-6.40L10.91-4.97L6.63-4.97ZM20.62-26.26L20.62 0L25.59 0L25.59-26.26ZM44.46 0L44.46-26.26L39.48-26.26L39.48-13.39L33.81-26.26L28.91-26.26L28.91 0L33.88 0L33.88-12.90L39.58 0ZM63.45-17.97L63.45-22.14L59.34-26.26L51.91-26.26L47.77-22.14L47.77-4.11L51.91 0L59.34 0L63.45-4.11L63.45-13.56L55.03-13.56L55.03-8.59L58.48-8.59L58.48-6.40L57.05-4.97L54.20-4.97L52.78-6.40L52.78-19.86L54.20-21.28L57.05-21.28L58.48-19.86L58.48-17.97Z" transform="translate(-1.6575381954453734, 26.255405015854716)"></path></g>       <g transform="translate(64.79000091552734,0)"><path d="M15.02-3.71L13.92-3.71L17.04-12.53L20.22-3.71L19.06-3.71L19.06-1.59L27.05-1.59L27.05-3.71L25.86-3.71L30.23-16.01L31.63-16.01L31.63-18.17L25.66-18.17L25.66-16.01L26.75-16.01L23.04-5.54L19.33-16.01L20.39-16.01L20.39-18.17L13.69-18.17L13.69-16.01L14.82-16.01L11.07-5.54L7.33-16.01L8.59-16.01L8.59-18.17L2.49-18.17L2.49-16.01L3.85-16.01L8.22-3.71L7.03-3.71L7.03-1.59L15.02-1.59ZM27.05-4.54L27.95-4.54L27.95-0.73L18.17-0.73L18.17-4.54L19.00-4.54C18.26-6.42 17.72-7.98 17.04-9.95C16.37-8.13 15.82-6.36 15.15-4.54L15.91-4.54L15.91-0.73L6.13-0.73L6.13-4.54L6.96-4.54C5.65-8.26 4.54-11.43 3.22-15.18L1.59-15.18L1.59-19.00L9.48-19.00L9.48-15.18L8.59-15.18C9.41-12.71 10.20-10.65 11.07-8.19C11.94-10.54 12.69-12.81 13.56-15.18L12.80-15.18L12.80-19.00L21.28-19.00L21.28-15.18L20.52-15.18C21.42-12.73 22.18-10.72 23.04-8.22C23.89-10.67 24.67-12.65 25.53-15.18L24.76-15.18L24.76-19.00L32.52-19.00L32.52-15.18L30.83-15.18C29.60-11.50 28.35-8.19 27.05-4.54ZM16.67-5.24L16.18-5.24C16.44-6.08 16.73-6.90 17.04-7.69C17.33-6.86 17.58-6.30 17.82-5.59L17.93-5.24L17.44-5.24L17.44-0.03L28.71-0.03L28.71-5.24L28.11-5.24C29.19-8.47 30.26-11.29 31.43-14.45L33.25-14.45L33.25-19.69L24.03-19.69L24.03-14.45L24.53-14.45C23.96-12.91 23.59-11.79 23.07-10.34C22.53-11.92 22.08-12.97 21.58-14.45L22.01-14.45L22.01-19.69L12.03-19.69L12.03-14.45L12.56-14.45C12.00-12.92 11.59-11.78 11.07-10.34C10.53-11.92 10.10-12.98 9.61-14.45L10.21-14.45L10.21-19.69L0.83-19.69L0.83-14.45L2.69-14.45C3.24-12.84 3.79-11.32 4.34-9.76L5.14-7.54C5.40-6.80 5.67-6.03 5.93-5.24L5.40-5.24L5.40-0.03L16.67-0.03ZM44.85-16.01L44.85-18.17L37.06-18.17L37.06-16.01L38.26-16.01L34.21-3.71L33.42-3.71L33.42-1.59L38.42-1.59L38.42-3.71L37.43-3.71L38.39-6.63L43.36-6.63L44.36-3.71L43.33-3.71L43.33-1.59L48.33-1.59L48.33-3.71L47.57-3.71L43.53-16.01ZM42.86-8.16L38.89-8.16L40.91-14.25ZM40.01-8.98L41.74-8.98C41.42-9.93 41.25-10.67 40.91-11.64C40.55-10.72 40.34-10.01 40.01-8.98ZM38.59-4.54L39.25-4.54L39.25-0.73L32.62-0.73L32.62-4.54L33.61-4.54C34.79-8.15 35.87-11.58 37.10-15.18L36.23-15.18L36.23-19.00L45.65-19.00L45.65-15.18L44.69-15.18C45.86-11.48 46.94-8.25 48.13-4.54L49.16-4.54L49.16-0.73L42.50-0.73L42.50-4.54L43.20-4.54C43.13-4.72 43.06-4.91 43.00-5.11L42.76-5.80L38.99-5.80C38.81-5.21 38.79-5.24 38.59-4.54ZM45.62-14.45L46.34-14.45L46.34-19.69L35.54-19.69L35.54-14.45L36.17-14.45C35.10-11.26 34.18-8.42 33.12-5.24L31.92-5.24L31.92-0.03L39.95-0.03L39.95-5.11L41.80-5.11L41.80-0.03L49.86-0.03L49.86-5.24L48.63-5.24C47.50-8.55 46.68-11.16 45.62-14.45ZM56.92-3.71L56.92-16.01L57.95-16.01L57.95-18.17L52.97-18.17L52.97-16.01L54.04-16.01L54.04-3.71L52.97-3.71L52.97-1.59L64.01-1.59L64.01-4.81L61.99-4.81L61.99-3.71ZM57.72-15.18L57.72-4.54L61.20-4.54L61.20-5.67L64.81-5.67L64.81-0.73L52.18-0.73L52.18-4.54L53.24-4.54L53.24-15.18L52.18-15.18L52.18-19.00L58.74-19.00L58.74-15.18ZM58.35-14.45L59.41-14.45L59.41-19.69L51.52-19.69L51.52-14.45L52.58-14.45L52.58-5.24L51.52-5.24L51.52-0.03L65.44-0.03L65.44-6.36L60.53-6.36L60.53-5.24L58.35-5.24ZM72.50-3.71L72.50-16.01L73.53-16.01L73.53-18.17L68.56-18.17L68.56-16.01L69.62-16.01L69.62-3.71L68.56-3.71L68.56-1.59L79.59-1.59L79.59-4.81L77.57-4.81L77.57-3.71ZM73.30-15.18L73.30-4.54L76.78-4.54L76.78-5.67L80.39-5.67L80.39-0.73L67.76-0.73L67.76-4.54L68.82-4.54L68.82-15.18L67.76-15.18L67.76-19.00L74.32-19.00L74.32-15.18ZM73.93-14.45L74.99-14.45L74.99-19.69L67.10-19.69L67.10-14.45L68.16-14.45L68.16-5.24L67.10-5.24L67.10-0.03L81.02-0.03L81.02-6.36L76.11-6.36L76.11-5.24L73.93-5.24ZM88.11-8.62L93.65-8.62L96.00-11.11L96.00-15.71L93.65-18.17L84.14-18.17L84.14-16.01L85.20-16.01L85.20-3.71L84.14-3.71L84.14-1.59L89.18-1.59L89.18-3.71L88.11-3.71ZM88.11-16.01L91.96-16.01L93.05-14.85L93.05-11.97L91.96-10.77L88.11-10.77ZM88.91-11.60L91.63-11.60L92.26-12.27L92.26-14.52L91.66-15.18L88.91-15.18ZM83.34-19.00L93.98-19.00L96.80-16.04L96.80-10.77L93.98-7.79L88.91-7.79L88.91-4.54L89.97-4.54L89.97-0.73L83.34-0.73L83.34-4.54L84.40-4.54L84.40-15.18L83.34-15.18ZM89.57-7.09L94.25-7.09L97.46-10.48L97.46-16.34L94.25-19.69L82.68-19.69L82.68-14.45L83.74-14.45L83.74-5.24L82.68-5.24L82.68-0.03L90.63-0.03L90.63-5.24L89.57-5.24ZM89.57-14.45L91.36-14.45L91.60-14.22L91.60-12.53L91.40-12.33L89.57-12.33ZM109.40-16.01L109.40-18.17L101.61-18.17L101.61-16.01L102.80-16.01L98.76-3.71L97.96-3.71L97.96-1.59L102.97-1.59L102.97-3.71L101.97-3.71L102.93-6.63L107.91-6.63L108.90-3.71L107.87-3.71L107.87-1.59L112.88-1.59L112.88-3.71L112.12-3.71L108.07-16.01ZM107.41-8.16L103.43-8.16L105.45-14.25ZM104.56-8.98L106.28-8.98C105.96-9.93 105.79-10.67 105.45-11.64C105.10-10.72 104.89-10.01 104.56-8.98ZM103.13-4.54L103.80-4.54L103.80-0.73L97.16-0.73L97.16-4.54L98.16-4.54C99.33-8.15 100.41-11.58 101.64-15.18L100.78-15.18L100.78-19.00L110.19-19.00L110.19-15.18L109.23-15.18C110.41-11.48 111.49-8.25 112.68-4.54L113.71-4.54L113.71-0.73L107.04-0.73L107.04-4.54L107.74-4.54C107.67-4.72 107.61-4.91 107.54-5.11L107.31-5.80L103.53-5.80C103.35-5.21 103.34-5.24 103.13-4.54ZM110.16-14.45L110.89-14.45L110.89-19.69L100.08-19.69L100.08-14.45L100.71-14.45C99.65-11.26 98.72-8.42 97.66-5.24L96.47-5.24L96.47-0.03L104.49-0.03L104.49-5.11L106.35-5.11L106.35-0.03L114.40-0.03L114.40-5.24L113.18-5.24C112.04-8.55 111.23-11.16 110.16-14.45ZM121.50-8.62L127.03-8.62L129.39-11.11L129.39-15.71L127.03-18.17L117.52-18.17L117.52-16.01L118.58-16.01L118.58-3.71L117.52-3.71L117.52-1.59L122.56-1.59L122.56-3.71L121.50-3.71ZM121.50-16.01L125.34-16.01L126.44-14.85L126.44-11.97L125.34-10.77L121.50-10.77ZM122.29-11.60L125.01-11.60L125.64-12.27L125.64-14.52L125.04-15.18L122.29-15.18ZM116.72-19.00L127.37-19.00L130.18-16.04L130.18-10.77L127.37-7.79L122.29-7.79L122.29-4.54L123.35-4.54L123.35-0.73L116.72-0.73L116.72-4.54L117.78-4.54L117.78-15.18L116.72-15.18ZM122.96-7.09L127.63-7.09L130.85-10.48L130.85-16.34L127.63-19.69L116.06-19.69L116.06-14.45L117.12-14.45L117.12-5.24L116.06-5.24L116.06-0.03L124.02-0.03L124.02-5.24L122.96-5.24ZM122.96-14.45L124.75-14.45L124.98-14.22L124.98-12.53L124.78-12.33L122.96-12.33ZM144.87-1.59L144.87-4.44L142.88-4.44L142.88-3.71L137.87-3.71L137.87-8.78L140.49-8.78L140.49-8.02L142.52-8.02L142.52-11.67L140.49-11.67L140.49-10.94L137.87-10.94L137.87-16.01L142.88-16.01L142.88-15.28L144.87-15.28L144.87-18.17L133.96-18.17L133.96-16.01L134.99-16.01L134.99-3.71L133.96-3.71L133.96-1.59ZM145.63-5.30L145.63-0.73L133.17-0.73L133.17-4.54L134.23-4.54L134.23-15.18L133.17-15.18L133.17-19.00L145.63-19.00L145.63-14.45L142.08-14.45L142.08-15.18L138.67-15.18L138.67-11.77L139.73-11.77L139.73-12.50L143.28-12.50L143.28-7.19L139.73-7.19L139.73-7.96L138.67-7.96L138.67-4.54L142.08-4.54L142.08-5.30ZM146.29-0.03L146.29-6.00L141.42-6.00L141.42-5.24L139.33-5.24L139.33-6.50L143.94-6.50L143.94-13.23L139.33-13.23L139.33-14.45L141.42-14.45L141.42-13.76L146.29-13.76L146.29-19.69L132.50-19.69L132.50-14.45L133.56-14.45L133.56-5.24L132.50-5.24L132.50-0.03ZM149.44-1.59L154.58-1.59L154.58-3.71L153.49-3.71L153.49-9.12L157.43-9.12L158.53-7.96L158.53-1.59L162.57-1.59L162.57-3.71L161.51-3.71L161.51-8.52L159.89-10.18L161.51-11.87L161.51-15.71L159.12-18.17L149.44-18.17L149.44-16.01L150.54-16.01L150.54-3.71L149.44-3.71ZM153.49-16.01L157.43-16.01L158.53-14.85L158.53-12.43L157.43-11.24L153.49-11.24ZM154.32-12.10L157.07-12.10L157.73-12.73L157.73-14.52L157.10-15.18L154.32-15.18ZM157.07-8.29L154.32-8.29L154.32-4.54L155.38-4.54L155.38-0.73L148.65-0.73L148.65-4.54L149.71-4.54L149.71-15.18L148.65-15.18L148.65-19.00L159.46-19.00L162.31-16.04L162.31-11.54L161.01-10.18L162.31-8.85L162.31-4.54L163.40-4.54L163.40-0.73L157.73-0.73L157.73-7.66C157.50-7.89 157.29-8.03 157.07-8.29ZM157.04-7.33L157.04-0.03L164.06-0.03L164.06-5.24L163.00-5.24L163.00-9.15L161.97-10.18L163.00-11.24L163.00-16.34L159.75-19.69L147.95-19.69L147.95-14.45L149.05-14.45L149.05-5.24L147.95-5.24L147.95-0.03L156.07-0.03L156.07-5.24L154.98-5.24L154.98-7.59L156.80-7.59C156.87-7.53 156.98-7.39 157.04-7.33ZM154.98-14.45L156.80-14.45L157.04-14.22L157.04-13.03L156.84-12.80L154.98-12.80Z" transform="translate(-0.8287690977226866, 26.255405015854716)"></path></g></g> <rect fill="#000" x="0" y="0" width="232.01876831054688" height="12.160000801086426" transform="translate(-2, 31.260000228881836)"></rect><g fill-rule="" hollow-target="t-name" class="tp-slogan iconsvg-slogansvg" transform="translate(0,33.260000228881836)" fill="#fff"><rect x="0" height="1" y="3.580000400543213" width="93.63938522338867"></rect> <rect height="1" y="3.580000400543213" width="93.63938522338867" x="134.3793830871582"></rect> <g transform="translate(96.63938522338867,0)"><path d="M2.08-4.14L2.08-7.07L3.40-7.07C4.01-7.07 4.48-6.96 4.81-6.76C5.14-6.55 5.30-6.18 5.30-5.66C5.30-5.15 5.14-4.77 4.81-4.52C4.48-4.27 4.01-4.14 3.40-4.14ZM5.40 0L6.53 0L4.54-3.43C5.07-3.57 5.50-3.82 5.82-4.19C6.14-4.56 6.30-5.05 6.30-5.66C6.30-6.07 6.23-6.42 6.10-6.70C5.96-6.98 5.77-7.20 5.53-7.38C5.28-7.56 4.99-7.68 4.65-7.76C4.31-7.83 3.94-7.87 3.54-7.87L1.08-7.87L1.08 0L2.08 0L2.08-3.32L3.50-3.32ZM10.96 0.14C11.45 0.14 11.91 0.05 12.32-0.14C12.73-0.34 13.09-0.61 13.39-0.97C13.69-1.32 13.92-1.75 14.08-2.26C14.25-2.77 14.33-3.34 14.33-3.97C14.33-4.60 14.25-5.16 14.08-5.66C13.92-6.16 13.69-6.58 13.39-6.93C13.09-7.28 12.73-7.55 12.32-7.73C11.91-7.92 11.45-8.02 10.96-8.02C10.46-8.02 10.01-7.92 9.59-7.74C9.18-7.56 8.83-7.29 8.53-6.94C8.24-6.59 8.01-6.17 7.84-5.67C7.68-5.17 7.60-4.60 7.60-3.97C7.60-3.34 7.68-2.77 7.84-2.26C8.01-1.75 8.24-1.32 8.53-0.97C8.83-0.61 9.18-0.34 9.59-0.14C10.01 0.05 10.46 0.14 10.96 0.14ZM10.96-0.73C10.60-0.73 10.29-0.81 10.00-0.96C9.72-1.11 9.47-1.33 9.27-1.61C9.07-1.90 8.91-2.24 8.80-2.63C8.68-3.03 8.63-3.48 8.63-3.97C8.63-4.46 8.68-4.90 8.80-5.29C8.91-5.68 9.07-6.02 9.27-6.29C9.47-6.56 9.72-6.77 10.00-6.92C10.29-7.07 10.60-7.14 10.96-7.14C11.31-7.14 11.63-7.07 11.91-6.92C12.19-6.77 12.44-6.56 12.64-6.29C12.85-6.02 13.00-5.68 13.12-5.29C13.23-4.90 13.28-4.46 13.28-3.97C13.28-3.48 13.23-3.03 13.12-2.63C13.00-2.24 12.85-1.90 12.64-1.61C12.44-1.33 12.19-1.11 11.91-0.96C11.63-0.81 11.31-0.73 10.96-0.73ZM16.02-7.87L16.02 0L18.53 0C18.97 0 19.37-0.05 19.74-0.14C20.11-0.24 20.42-0.38 20.69-0.58C20.95-0.77 21.16-1.01 21.30-1.30C21.44-1.58 21.52-1.92 21.52-2.30C21.52-2.85 21.36-3.28 21.04-3.59C20.72-3.90 20.27-4.10 19.69-4.19L19.69-4.24C20.16-4.36 20.50-4.57 20.72-4.89C20.95-5.21 21.06-5.56 21.06-5.95C21.06-6.30 20.99-6.59 20.86-6.83C20.73-7.08 20.55-7.28 20.31-7.43C20.07-7.58 19.79-7.69 19.46-7.76C19.13-7.84 18.76-7.87 18.36-7.87ZM18.18-4.51L17.02-4.51L17.02-7.08L18.23-7.08C18.84-7.08 19.31-6.99 19.61-6.80C19.92-6.61 20.08-6.30 20.08-5.87C20.08-5.43 19.93-5.09 19.64-4.86C19.35-4.63 18.86-4.51 18.18-4.51ZM18.38-0.79L17.02-0.79L17.02-3.77L18.38-3.77C19.08-3.77 19.61-3.65 19.98-3.43C20.35-3.20 20.53-2.84 20.53-2.35C20.53-1.82 20.34-1.42 19.97-1.17C19.59-0.92 19.06-0.79 18.38-0.79ZM25.98 0.14C26.48 0.14 26.93 0.05 27.34-0.14C27.75-0.34 28.11-0.61 28.41-0.97C28.71-1.32 28.94-1.75 29.11-2.26C29.27-2.77 29.35-3.34 29.35-3.97C29.35-4.60 29.27-5.16 29.11-5.66C28.94-6.16 28.71-6.58 28.41-6.93C28.11-7.28 27.75-7.55 27.34-7.73C26.93-7.92 26.48-8.02 25.98-8.02C25.48-8.02 25.03-7.92 24.62-7.74C24.21-7.56 23.85-7.29 23.56-6.94C23.26-6.59 23.03-6.17 22.87-5.67C22.70-5.17 22.62-4.60 22.62-3.97C22.62-3.34 22.70-2.77 22.87-2.26C23.03-1.75 23.26-1.32 23.56-0.97C23.85-0.61 24.21-0.34 24.62-0.14C25.03 0.05 25.48 0.14 25.98 0.14ZM25.98-0.73C25.63-0.73 25.31-0.81 25.03-0.96C24.74-1.11 24.50-1.33 24.29-1.61C24.09-1.90 23.93-2.24 23.82-2.63C23.71-3.03 23.65-3.48 23.65-3.97C23.65-4.46 23.71-4.90 23.82-5.29C23.93-5.68 24.09-6.02 24.29-6.29C24.50-6.56 24.74-6.77 25.03-6.92C25.31-7.07 25.63-7.14 25.98-7.14C26.33-7.14 26.65-7.07 26.93-6.92C27.22-6.77 27.46-6.56 27.67-6.29C27.87-6.02 28.03-5.68 28.14-5.29C28.25-4.90 28.31-4.46 28.31-3.97C28.31-3.48 28.25-3.03 28.14-2.63C28.03-2.24 27.87-1.90 27.67-1.61C27.46-1.33 27.22-1.11 26.93-0.96C26.65-0.81 26.33-0.73 25.98-0.73ZM32.44-7.03L32.44 0L33.44 0L33.44-7.03L35.82-7.03L35.82-7.87L30.06-7.87L30.06-7.03Z" transform="translate(-1.08, 8.016)"></path></g></g></mask></svg>
